<svg xmlns="http://www.w3.org/2000/svg" xmlns:xlink="http://www.w3.org/1999/xlink" width="500" height="320" viewBox="0 0 500 320"><defs><style>.a{fill:#e7eff5;}.b{fill:#ffca59;}.c{fill:#0e0e0e;}.d{fill:#ed5a24;}.e{fill:#7f8fa4;}.f{fill:none;}.ad,.g,.m{fill:#fff;}.h,.z{fill:#d6dbe0;}.h{opacity:0.3;}.i,.k{fill:#475f7b;}.i{opacity:0.8;}.j{fill:#f7f8fa;}.l,.n,.p{fill:#b7c0cc;}.l{opacity:0.6;}.m,.n,.o{opacity:0.51;}.q{fill:#363636;}.r{fill:url(#a);}.ab,.s{fill:#472f92;}.t{fill:url(#b);}.u{fill:url(#c);}.v{fill:url(#d);}.w{fill:#1f2233;}.x{fill:url(#e);}.y{fill:url(#f);}.aa{fill:#322f52;}.ab{mix-blend-mode:multiply;isolation:isolate;}.ac{fill:#8f9cad;}.ad{opacity:0.7;}.ae{fill:#d9ffff;}.af{fill:#049f80;}.ag{fill:#00b490;}.ah{filter:url(#g);}</style><linearGradient id="a" x1="1.61" y1="0.212" x2="1.158" y2="0.899" gradientUnits="objectBoundingBox"><stop offset="0" stop-color="#febbba"/><stop offset="1" stop-color="#ff928e"/></linearGradient><linearGradient id="b" x1="0.755" y1="0.791" x2="1.452" y2="-1.379" xlink:href="#a"/><linearGradient id="c" x1="-2.192" y1="1.062" x2="-2.081" y2="0.1" xlink:href="#a"/><linearGradient id="d" x1="-0.618" y1="0.82" x2="-0.929" y2="-0.114" xlink:href="#a"/><linearGradient id="e" x1="-8.072" y1="2.058" x2="-9.545" y2="-0.895" xlink:href="#a"/><linearGradient id="f" x1="3.36" y1="0.5" x2="4.36" y2="0.5" gradientUnits="objectBoundingBox"><stop offset="0" stop-color="#322f52"/><stop offset="1" stop-color="#1a0f91"/></linearGradient><filter id="g" x="233.173" y="103.735" width="123.219" height="164.615" filterUnits="userSpaceOnUse"><feOffset dy="3" input="SourceAlpha"/><feGaussianBlur stdDeviation="3" result="h"/><feFlood flood-opacity="0.078"/><feComposite operator="in" in2="h"/><feComposite in="SourceGraphic"/></filter></defs><g transform="translate(-710 -255)"><g transform="translate(-17.622)"><g transform="translate(374.23 -611.233)"><path class="a" d="M426.23,1144.844c-29.768-14.6-32.617-35.985-17.378-66.033s83.962-46.157,58.352-84.043c-22.242-32.9-37.942-63.226-15.046-89.678,35.459-40.966,143.263,8.387,216.531-19.355s155.641,48.212,74.844,108.5c-96.887,72.288-5.055,150.614-5.055,150.614S456,1159.439,426.23,1144.844Z" transform="translate(3.63 19.56)"/><g transform="translate(700.166 1058.942)"><g transform="translate(33.062 10.364)"><path class="b" d="M567.365,1398.08c2.526,2.606-1.168,5.816-1.138,10s5.077,5.708,1,11.861c-2.51,3.789-5.8-.154-7.454,5.292s.442,5.975-2.047,8.246c-4.339,3.96-12.921-1.8-11.248-7.248s6.8-5.825,3.783-9.582-4.184-5.4-.5-8.189c4.561-3.455,9.358-1.759,9.127-5.678S564.024,1394.633,567.365,1398.08Z" transform="translate(-546.267 -1396.808)"/><path class="c" d="M561.081,1449.566l-.868-.028c.666-20.547,11.427-36.627,11.536-36.787l.718.488C572.36,1413.4,561.738,1429.279,561.081,1449.566Z" transform="translate(-555.102 -1406.908)"/></g><path class="d" d="M456.778,1370.991c-2.7,4.041,2.943,7.375,3.913,12.888s-5.444,6.562,1.407,13.678c4.22,4.383,5.52,2.167,6.138,10.8.544,7.6,7.1,1.309,10.722,6.208,4.676,6.321,14.784-4.842,11.266-11.606s-8.795-5.838-5.726-11.513.957-10.54-4.569-13.325c-6.839-3.447-10.219,2.228-10.86-2.987S460.344,1365.647,456.778,1370.991Z" transform="translate(-456.055 -1368.529)"/><path class="c" d="M498.538,1434.624c-5.769-26.565-23.587-44.894-23.766-45.076l.828-.816c.181.185,18.234,18.755,24.074,45.645Z" transform="translate(-467.912 -1381.328)"/><g transform="translate(14.739 52.622)"><path class="e" d="M501.457,1512.114v23.377a17.147,17.147,0,0,0,17.147,17.147h0a17.148,17.148,0,0,0,17.148-17.147v-23.377Z" transform="translate(-499.557 -1512.114)"/><rect class="c" width="1.901" height="36.283" transform="translate(0 17.666)"/><rect class="c" width="1.901" height="36.283" transform="translate(36.195 17.666)"/><rect class="c" width="1.901" height="36.283" transform="translate(21.651 17.666)"/><rect class="c" width="36.283" height="1.901" transform="translate(0 40.524)"/></g></g></g></g><rect class="f" width="500" height="320" transform="translate(710 255)"/><g transform="translate(820.333 361.459)"><path class="g" d="M465.2,1336.662a46.252,46.252,0,0,1,65.373-31.278,5.368,5.368,0,0,0,7.583-3.586c8.2-32.579,37.047-56.647,71.382-56.647,40.713,0,73.717,33.84,73.717,75.584,0,1.108-.022,2.622-.041,4.074.144,3.122,1.473,4.447,3.458,4.78,15.951,1.7,28.487,15.185,29.183,31.815.8,19.095-14.359,34.915-33,34.915H510.44C480.924,1396.318,457.815,1368.2,465.2,1336.662Z" transform="translate(-489.185 -1231.778)"/><path class="h" d="M614.094,1505.615a41.3,41.3,0,0,1,58.37-27.927,4.793,4.793,0,0,0,6.77-3.2c7.319-29.088,33.079-50.578,63.735-50.578,36.351,0,65.82,30.215,65.82,67.486,0,.989-.019,2.341-.036,3.638.129,2.787,1.316,3.971,3.087,4.268,14.242,1.52,25.435,13.558,26.056,28.407a29.773,29.773,0,0,1-29.464,31.174H654.484C628.131,1558.881,607.5,1533.773,614.094,1505.615Z" transform="translate(-623.721 -1394.341)"/></g><g transform="translate(844.053 448.86)"><path class="i" d="M828.784,2283.021a2.886,2.886,0,0,0,2.879,2.876h155.67a2.886,2.886,0,0,0,2.879-2.876l1.3-89.459a5.013,5.013,0,0,0-5.279-4.438l-152.138-3.936a7.254,7.254,0,0,0-7.444,7.419Z" transform="translate(-816.155 -2185.186)"/><path class="j" d="M856.233,2310.116a2.731,2.731,0,0,0,2.724,2.723h149.229a2.731,2.731,0,0,0,2.723-2.723l1.222-81.212a6.7,6.7,0,0,0-7.026-6.54l-145.811-3.912a5.1,5.1,0,0,0-5.231,5.217Z" transform="translate(-840.762 -2215.039)"/><g transform="translate(115.987 7.624)"><path class="g" d="M2364.3,2671.468h0a.4.4,0,0,1-.4-.405l.1-6.586a.4.4,0,0,1,.4-.393h0a.4.4,0,0,1,.4.405l-.1,6.586A.4.4,0,0,1,2364.3,2671.468Z" transform="translate(-2311.756 -2622.596)"/><path class="g" d="M1908.176,2292.26h-.006a.4.4,0,0,1-.393-.405l.37-25.226a4.737,4.737,0,0,0-1.352-3.547,6.664,6.664,0,0,0-4.411-1.505l-46.6-1.25a.4.4,0,0,1-.388-.409.382.382,0,0,1,.41-.388l46.577,1.25a7.33,7.33,0,0,1,4.969,1.726,5.51,5.51,0,0,1,1.6,4.128l-.37,25.234A.4.4,0,0,1,1908.176,2292.26Z" transform="translate(-1855.391 -2259.528)"/></g><rect class="k" width="183.529" height="7.86" rx="3.93" transform="translate(183.529 108.138) rotate(180)"/><path class="l" d="M968.341,2376.006H912.585a3.762,3.762,0,0,1-3.722-3.8v-74.317a3.758,3.758,0,0,1,3.865-3.8l55.756,2.178a3.766,3.766,0,0,1,3.58,3.8v72.139A3.762,3.762,0,0,1,968.341,2376.006Z" transform="translate(-888.015 -2282.919)"/><g transform="translate(30.179 40.592)"><rect class="m" width="39.153" height="5.058" rx="2.529"/><rect class="m" width="39.153" height="5.058" rx="2.529" transform="translate(0.077 8.077)"/><rect class="m" width="39.153" height="5.058" rx="2.529" transform="translate(0.306 16.324)"/><rect class="m" width="39.153" height="5.058" rx="2.529" transform="translate(0.383 24.401)"/></g><g transform="translate(96.508 13.735)"><rect class="n" width="56.29" height="5.058" rx="2.529" transform="translate(0 26.851)"/><rect class="n" width="56.29" height="5.058" rx="2.529" transform="translate(0.174 34.935)"/><rect class="n" width="33.355" height="5.058" rx="2.529" transform="translate(0.174 43.181)"/><g class="o" transform="translate(14.842)"><path class="p" d="M1841.847,2327.116h-.857a.771.771,0,0,1-.771-.771v-2.931a1.9,1.9,0,0,0-1.9-1.9h-5.313a1.9,1.9,0,0,0-1.9,1.9v2.931a.771.771,0,0,1-.771.771h-.858a.771.771,0,0,1-.771-.771v-2.931a4.3,4.3,0,0,1,4.3-4.3h5.313a4.3,4.3,0,0,1,4.3,4.3v2.931A.771.771,0,0,1,1841.847,2327.116Z" transform="translate(-1826.808 -2319.116)"/><path class="p" d="M1826.282,2403.874h-14.494a1.608,1.608,0,0,0-1.608,1.608v11.124a1.608,1.608,0,0,0,1.608,1.608h14.494a1.609,1.609,0,0,0,1.609-1.608v-11.124A1.608,1.608,0,0,0,1826.282,2403.874Zm-5.173,10.751a.6.6,0,0,1-.579.735h-2.989a.6.6,0,0,1-.579-.735l.7-2.9a2.687,2.687,0,1,1,2.753,0Z" transform="translate(-1810.18 -2395.182)"/></g></g></g><g transform="translate(797.099 357.643)"><path class="q" d="M681.679,1811.972s3.135.166,3.52,6.616a37.254,37.254,0,0,1-17.091,8.068c-.737.117,1.031-5.033,1.3-5.73C670.669,1817.608,674.652,1815.47,681.679,1811.972Z" transform="translate(-650.573 -1743.43)"/><path class="k" d="M765.566,1480.422H758.95s-20.307-22.427-33.626-24.69c0,0-9.271,11.834.494,33.947a3.228,3.228,0,0,0,4.621,1.522,2.646,2.646,0,0,0,1.056-1.259l-.785-18.88s17.322,15.15,20.333,18.074S769.358,1490.277,765.566,1480.422Z" transform="translate(-699.151 -1419.464)"/><path class="q" d="M502.617,2188.4a24.869,24.869,0,0,1,13.568-5.937l2.157,1.319a23.5,23.5,0,0,1-3.888,4.171c-2.309,1.341-5.875,3.157-8.831,3.552C502.748,2191.887,502.325,2190.151,502.617,2188.4Z" transform="translate(-500.166 -2080.356)"/><path class="q" d="M655.973,1877.449c1.708.553,2.459,2.973,6.794,1.372a38.368,38.368,0,0,0,8.914-4.7c.036.312.066.638.087.986,0,0-7.666,7.291-17.486,8.842a.977.977,0,0,1-1.056-1.317A24.679,24.679,0,0,1,655.973,1877.449Z" transform="translate(-637.142 -1799.952)"/><path class="q" d="M476.713,2245.589a22.941,22.941,0,0,1,2.089-2.075c-.292,1.751.132,3.488,3.006,3.1,2.956-.394,6.522-2.21,8.831-3.552A19.089,19.089,0,0,1,477.783,2248,1.458,1.458,0,0,1,476.713,2245.589Z" transform="translate(-476.351 -2135.47)"/><path class="k" d="M685.606,1781.1l-30.983.336s-17.694,14.639-20.9,36.961c0,0-.533,1.642,2.665,1.923a61.417,61.417,0,0,0,17.673-19.339c8.553-15.146,25.5-8.328,25.5-8.328,8.14,1.8,14.619,1.128,19.361-6.168Z" transform="translate(-619.433 -1715.351)"/><path class="r" d="M929.048,1505.6s-3.335,16.716-19.678,23.328l-5.813-.685-1.372,2.187,13.636.435a37.3,37.3,0,0,0,17.831-17.2C933.857,1513.258,937.257,1506.236,929.048,1505.6Z" transform="translate(-863.606 -1464.819)"/><path class="s" d="M1173.782,1369.288a89.274,89.274,0,0,0,4.608-20.328,43.809,43.809,0,0,0-4.509-3.413,1.254,1.254,0,0,1-.49-1.626c1.275-2.641,8.987-13.014,9.564-13.158,3.14-.784,16.016-6.906,25.085,5.5,3.892,5.324-.772,21.712-18.429,38.683C1183.929,1375.87,1178.617,1374.233,1173.782,1369.288Z" transform="translate(-1110.128 -1303.817)"/><path class="t" d="M976.7,1578.635s-10.538,12.477-24.011,14.3c0,0-3.482-3.174-6.071-2.041s-6.139,6.136-6.139,6.136h17.3s16.357-.576,24.53-10.5C981.653,1583.066,979.683,1580.992,976.7,1578.635Z" transform="translate(-898.432 -1531.233)"/><path class="u" d="M1334.191,1256.236l2.306,7.69a.845.845,0,0,1-.328.942,8.589,8.589,0,0,1-7.991.8,1.253,1.253,0,0,1-.806-1.077l-.547-6.7Z" transform="translate(-1249.774 -1238.042)"/><g transform="translate(65.882 -0.001)"><path class="v" d="M1259.117,1134.73s1.134,7.972,4.2,10.423,9.028.606,11.043-5.4l-4.015-10.276Z" transform="translate(-1254.083 -1122.763)"/><path class="w" d="M1220.259,1068.764a.4.4,0,0,1-.513-.316,10.3,10.3,0,0,0-.945-3.184s.292-1.046-2.643.534-7.344,3.9-9.94,2.519c-2.531-1.347-5.094-8.129,1.594-6.872a.4.4,0,0,0,.469-.413c-.082-1.114.028-3.678,2.625-4.5a3.732,3.732,0,0,1,4.308.989.392.392,0,0,0,.614-.01,4.552,4.552,0,0,1,5.615-1.69c2.4,1.056,2.77,2.533,2.73,3.453a.393.393,0,0,0,.561.375,2.368,2.368,0,0,1,3.046.9c1.564,1.959-.671,3.658-1.341,4.1a.4.4,0,0,0-.179.326c-.006,1.019-.165,5.463-2.392,7.97a.4.4,0,0,1-.662-.114l-1.715-4.087a.4.4,0,0,0-.487-.224Z" transform="translate(-1203.548 -1055.405)"/><path class="x" d="M1387.6,1180.332s1.047-4.266,2.638-2.881-.415,4.433-2.237,5.014Z" transform="translate(-1370.929 -1166.143)"/></g><path class="y" d="M727.246,1506.239l-7.767-25.9a2.648,2.648,0,0,0-2.356-1.882l-10.487-.718a1.487,1.487,0,0,0-1.5,1.977l8.683,24.737a2.177,2.177,0,0,0,1.835,1.445l10.327,1.147Z" transform="translate(-684.326 -1439.472)"/><path class="z" d="M787.984,1575.383c.58,1.17,1.581,1.856,2.237,1.531s.717-1.537.137-2.707-1.581-1.856-2.237-1.531S787.4,1574.212,787.984,1575.383Z" transform="translate(-759.389 -1525.739)"/><path class="aa" d="M926.186,1770.272h.051l22-1.112a.986.986,0,1,0-.1-1.97l-22,1.112a.986.986,0,0,0,.049,1.971Z" transform="translate(-884.536 -1702.703)"/><path class="ab" d="M1228.3,1443.8a.152.152,0,0,1-.152-.152,47.047,47.047,0,0,1,1.79-10.854.152.152,0,0,1,.293.086,46.71,46.71,0,0,0-1.778,10.767.152.152,0,0,1-.152.153Z" transform="translate(-1160.035 -1398.509)"/><path class="ab" d="M1338.757,1473.581a.152.152,0,0,1-.12-.247c.048-.061,4.831-6.141,6.468-10.289a.153.153,0,0,1,.284.112c-1.654,4.19-6.464,10.305-6.512,10.366A.153.153,0,0,1,1338.757,1473.581Z" transform="translate(-1260.487 -1426.026)"/><path class="ab" d="M1406.108,1566.691l-.87-1.23a.152.152,0,1,1,.249-.176l.728,1.029c6.786-2.975,10.988-11.094,11.03-11.177a.153.153,0,0,1,.272.139c-.043.083-4.339,8.389-11.295,11.367Z" transform="translate(-1321.058 -1509.788)"/></g><g transform="translate(930.626 272.099)"><g transform="translate(0 0)"><g transform="translate(0 50.966)"><path class="p" d="M2365.2,1113.967a.314.314,0,0,1-.154-.04.317.317,0,0,1-.123-.431q.306-.551.594-1.11a.317.317,0,0,1,.564.291q-.293.567-.6,1.127A.317.317,0,0,1,2365.2,1113.967Z" transform="translate(-2286.155 -1101.237)"/><path class="p" d="M1584.836,1079.737q-.281,0-.562,0a.317.317,0,0,1,0-.635h0c.821.011,1.65,0,2.469-.039a.322.322,0,0,1,.331.3.318.318,0,0,1-.3.331C1586.136,1079.723,1585.482,1079.737,1584.836,1079.737Zm-4.592-.247-.035,0c-.829-.09-1.664-.2-2.483-.342a.317.317,0,0,1,.1-.626c.807.136,1.63.249,2.446.337a.317.317,0,0,1-.034.633Zm10.547-.17a.317.317,0,0,1-.044-.631c.812-.114,1.631-.255,2.434-.416a.317.317,0,0,1,.125.622c-.815.164-1.647.306-2.471.422A.327.327,0,0,1,1590.791,1079.32Zm-16.961-1.026a.314.314,0,0,1-.082-.011c-.8-.215-1.612-.456-2.4-.717a.317.317,0,1,1,.2-.6c.778.257,1.574.5,2.366.707a.317.317,0,0,1-.082.624Zm23.335-.38a.317.317,0,0,1-.092-.621c.786-.238,1.574-.5,2.342-.786a.317.317,0,1,1,.219.6c-.779.287-1.579.556-2.377.8A.312.312,0,0,1,1597.164,1077.915Zm-29.491-1.784a.319.319,0,0,1-.128-.027c-.763-.336-1.524-.7-2.262-1.078a.317.317,0,0,1,.29-.565c.727.373,1.477.731,2.228,1.062a.317.317,0,0,1-.128.608Zm35.572-.586a.317.317,0,0,1-.138-.6c.738-.355,1.476-.738,2.193-1.137a.317.317,0,1,1,.309.554c-.728.405-1.477.794-2.227,1.155A.314.314,0,0,1,1603.245,1075.545Zm-41.32-2.5a.32.32,0,0,1-.171-.05c-.7-.45-1.4-.926-2.069-1.415a.317.317,0,0,1,.374-.513c.661.482,1.347.95,2.038,1.393a.317.317,0,0,1-.172.584Zm46.963-.78a.317.317,0,0,1-.181-.578c.675-.466,1.346-.958,1.992-1.462a.318.318,0,1,1,.391.5c-.657.512-1.337,1.011-2.022,1.484A.318.318,0,0,1,1608.888,1072.265Zm-52.165-3.154a.316.316,0,0,1-.21-.08c-.621-.55-1.236-1.127-1.828-1.715a.317.317,0,1,1,.448-.45c.583.579,1.189,1.148,1.8,1.69a.317.317,0,0,1-.211.555Zm57.241-.952a.317.317,0,0,1-.218-.548c.6-.563,1.185-1.151,1.747-1.746a.317.317,0,0,1,.462.436c-.57.6-1.167,1.2-1.773,1.772A.317.317,0,0,1,1613.965,1068.158Zm-61.785-3.732a.317.317,0,0,1-.244-.115c-.532-.638-1.052-1.3-1.547-1.972a.317.317,0,1,1,.51-.377c.488.66,1,1.314,1.525,1.943a.317.317,0,0,1-.244.52Zm66.177-1.094a.315.315,0,0,1-.194-.067.318.318,0,0,1-.056-.445c.505-.649,1-1.319,1.459-1.992a.317.317,0,1,1,.523.359c-.47.683-.968,1.364-1.481,2.022A.317.317,0,0,1,1618.356,1063.332Zm-69.957-4.226a.317.317,0,0,1-.272-.154c-.43-.716-.843-1.452-1.227-2.187a.317.317,0,0,1,.563-.294c.378.724.785,1.448,1.208,2.154a.317.317,0,0,1-.271.48Zm-2.917-5.838a.318.318,0,0,1-.294-.2c-.314-.773-.608-1.564-.874-2.349a.317.317,0,0,1,.6-.2c.262.774.552,1.552.861,2.314a.317.317,0,0,1-.294.437Z" transform="translate(-1542.908 -1045.16)"/><path class="p" d="M1530.148,997.618a.317.317,0,0,1-.308-.245q-.146-.623-.274-1.249a.317.317,0,0,1,.622-.126q.125.617.27,1.23a.317.317,0,0,1-.236.381A.335.335,0,0,1,1530.148,997.618Z" transform="translate(-1529.559 -995.744)"/></g><g transform="translate(5.652)"><path class="p" d="M1589.84,655.989a.317.317,0,0,1-.268-.487q.34-.539.7-1.071a.317.317,0,0,1,.527.354q-.353.524-.687,1.055A.316.316,0,0,1,1589.84,655.989Z" transform="translate(-1589.522 -635.508)"/><path class="p" d="M1697.648,486.111a.317.317,0,0,1-.3-.228c-.242-.827-.514-1.657-.807-2.468a.317.317,0,0,1,.6-.216c.3.822.573,1.665.82,2.5a.317.317,0,0,1-.3.407Zm-2.459-6.4a.317.317,0,0,1-.286-.18c-.375-.778-.777-1.554-1.2-2.3a.317.317,0,1,1,.554-.31c.426.762.835,1.549,1.215,2.339a.317.317,0,0,1-.149.424A.314.314,0,0,1,1695.188,479.706Zm-3.465-5.922a.316.316,0,0,1-.26-.135c-.494-.7-1.016-1.4-1.554-2.08a.317.317,0,1,1,.5-.4c.545.686,1.076,1.4,1.577,2.112a.317.317,0,0,1-.26.5Zm-67.526-2.769a.317.317,0,0,1-.244-.52c.557-.671,1.144-1.335,1.744-1.975a.317.317,0,0,1,.463.434c-.592.631-1.17,1.285-1.719,1.946A.317.317,0,0,1,1624.2,471.016Zm63.154-2.518a.317.317,0,0,1-.228-.1c-.6-.616-1.225-1.224-1.863-1.806a.317.317,0,0,1,.428-.469c.648.591,1.285,1.208,1.891,1.833a.317.317,0,0,1-.228.538Zm-58.363-2.393a.317.317,0,0,1-.209-.556c.661-.577,1.346-1.14,2.037-1.674a.317.317,0,1,1,.388.5c-.682.526-1.357,1.08-2.007,1.649A.317.317,0,0,1,1628.988,466.1Zm53.207-2.128a.318.318,0,0,1-.189-.063c-.691-.514-1.408-1.013-2.13-1.482a.317.317,0,0,1,.346-.532c.732.477,1.46.983,2.162,1.5a.317.317,0,0,1-.189.572Zm-47.693-1.958a.317.317,0,0,1-.168-.587c.742-.462,1.509-.908,2.28-1.324a.317.317,0,1,1,.3.558c-.76.41-1.515.849-2.247,1.3A.315.315,0,0,1,1634.5,462.018Zm41.874-1.671a.312.312,0,0,1-.145-.035c-.765-.394-1.553-.77-2.342-1.117a.317.317,0,0,1,.255-.581c.8.352,1.6.733,2.378,1.134a.317.317,0,0,1-.146.6Zm-35.773-1.471a.317.317,0,0,1-.122-.61c.806-.335,1.635-.65,2.464-.936a.317.317,0,0,1,.207.6c-.817.282-1.634.592-2.428.922A.318.318,0,0,1,1640.6,458.877Zm29.443-1.168a.319.319,0,0,1-.1-.015c-.819-.266-1.658-.509-2.493-.724a.317.317,0,0,1,.158-.615c.847.218,1.7.466,2.53.735a.317.317,0,0,1-.1.619Zm-22.915-.943a.317.317,0,0,1-.073-.626c.853-.2,1.723-.378,2.583-.525a.317.317,0,0,1,.107.625c-.848.145-1.7.319-2.545.517A.322.322,0,0,1,1647.13,456.767Zm16.241-.64a.32.32,0,0,1-.048,0c-.852-.131-1.719-.236-2.577-.315a.317.317,0,0,1,.058-.632c.871.079,1.751.187,2.616.32a.317.317,0,0,1-.048.631Zm-9.457-.389a.317.317,0,0,1-.022-.634c.871-.061,1.757-.1,2.633-.1h0a.317.317,0,0,1,0,.635c-.863.007-1.736.042-2.594.1Z" transform="translate(-1620.642 -455)"/><path class="p" d="M2414.245,824.3a.317.317,0,0,1-.313-.268q-.1-.621-.212-1.241a.317.317,0,0,1,.253-.37.32.32,0,0,1,.371.254q.117.629.216,1.26a.317.317,0,0,1-.265.363A.349.349,0,0,1,2414.245,824.3Z" transform="translate(-2336.033 -787.782)"/></g><g transform="translate(8.811 10.14)"><path class="ac" d="M1688.75,594.263a.51.51,0,0,0-.305-.507l-5.688-2.471a27.019,27.019,0,0,0-2.708-8.323l3.139-5.344a.51.51,0,0,0-.052-.589l-4.835-5.653a.51.51,0,0,0-.574-.143l-5.766,2.273a27.016,27.016,0,0,0-7.8-3.965l-1.56-6a.509.509,0,0,0-.453-.38l-7.416-.578a.51.51,0,0,0-.507.3l-2.471,5.688a27.018,27.018,0,0,0-8.323,2.708l-5.344-3.139a.51.51,0,0,0-.59.052l-5.653,4.836a.509.509,0,0,0-.143.574l2.273,5.766a27.016,27.016,0,0,0-3.965,7.8l-6,1.56a.51.51,0,0,0-.38.454l-.578,7.417a.509.509,0,0,0,.305.507l5.688,2.471a27.018,27.018,0,0,0,2.708,8.323l-3.139,5.344a.509.509,0,0,0,.052.589l4.836,5.653a.509.509,0,0,0,.574.143l5.766-2.273a27.015,27.015,0,0,0,7.8,3.965l1.56,6a.509.509,0,0,0,.454.38l7.417.578a.51.51,0,0,0,.507-.3l2.471-5.688a27.017,27.017,0,0,0,8.323-2.708l5.344,3.139a.51.51,0,0,0,.589-.052l5.653-4.836a.51.51,0,0,0,.143-.574l-2.274-5.766a27.021,27.021,0,0,0,3.965-7.8l6-1.56a.51.51,0,0,0,.38-.454Z" transform="translate(-1623.043 -562.58)"/><path class="ad" d="M1903.579,850.18a7.1,7.1,0,1,1,1.209-.1A7.17,7.17,0,0,1,1903.579,850.18Zm.028-13.214a6.2,6.2,0,0,0-1.047.089,6.13,6.13,0,1,0,4.575,1.038h0A6.085,6.085,0,0,0,1903.607,836.966Z" transform="translate(-1870.74 -810.242)"/><path class="ad" d="M1792.89,752.513q-.727,0-1.46-.057a18.428,18.428,0,0,1-17-18.34q0-.728.057-1.461a18.426,18.426,0,0,1,32.372-10.546,18.518,18.518,0,0,1,2.221,3.233l-.837.452a17.568,17.568,0,0,0-2.107-3.067,17.474,17.474,0,0,0-30.7,10q-.054.7-.054,1.386a17.477,17.477,0,0,0,34.043,5.536l.9.3a18.439,18.439,0,0,1-17.441,12.561Z" transform="translate(-1760.165 -701.23)"/></g></g><g transform="translate(74.386 40.568)"><g transform="translate(0 26.161)"><path class="p" d="M2744.937,1224.563a.317.317,0,0,1-.273-.479c.213-.36.417-.728.606-1.094a.317.317,0,1,1,.564.292c-.194.377-.4.755-.624,1.126A.317.317,0,0,1,2744.937,1224.563Z" transform="translate(-2704.485 -1217.18)"/><path class="p" d="M2355.455,1230.383h-.025a22.45,22.45,0,0,1-2.57-.353.317.317,0,1,1,.123-.623,21.624,21.624,0,0,0,2.5.343.317.317,0,0,1-.024.634Zm4.15-.067a.317.317,0,0,1-.035-.633,21.7,21.7,0,0,0,2.484-.426.317.317,0,0,1,.144.618,22.21,22.21,0,0,1-2.557.439Zm-10.661-1.47a.318.318,0,0,1-.12-.023,22.159,22.159,0,0,1-2.341-1.116.317.317,0,0,1,.306-.556,21.666,21.666,0,0,0,2.275,1.084.317.317,0,0,1-.12.611Zm17.118-.285a.318.318,0,0,1-.13-.607,21.4,21.4,0,0,0,2.237-1.162.317.317,0,1,1,.325.545,22.173,22.173,0,0,1-2.3,1.2A.317.317,0,0,1,2366.061,1228.562Zm-22.851-3.159a.314.314,0,0,1-.2-.074,22.359,22.359,0,0,1-1.89-1.775.317.317,0,1,1,.46-.437,21.8,21.8,0,0,0,1.836,1.725.317.317,0,0,1-.2.561Zm28.466-.479a.317.317,0,0,1-.211-.554l.187-.168a22.115,22.115,0,0,0,1.6-1.615.317.317,0,0,1,.474.421,22.537,22.537,0,0,1-1.642,1.663l-.192.173A.318.318,0,0,1,2371.676,1224.925Zm-32.889-4.539a.317.317,0,0,1-.268-.146,21.987,21.987,0,0,1-1.268-2.263.317.317,0,1,1,.57-.277,21.49,21.49,0,0,0,1.233,2.2.318.318,0,0,1-.267.488Z" transform="translate(-2335.482 -1212.38)"/><path class="p" d="M2319.4,1164.861a.318.318,0,0,1-.307-.236c-.109-.412-.208-.834-.293-1.253a.317.317,0,1,1,.621-.127c.084.407.179.816.285,1.217a.318.318,0,0,1-.226.388A.313.313,0,0,1,2319.4,1164.861Z" transform="translate(-2318.79 -1162.992)"/></g><g transform="translate(2.903)"><path class="p" d="M2349.9,983.9a.318.318,0,0,1-.268-.487c.228-.362.469-.721.718-1.069a.317.317,0,1,1,.516.369c-.241.338-.475.687-.7,1.039A.317.317,0,0,1,2349.9,983.9Z" transform="translate(-2349.588 -973.091)"/><path class="p" d="M2420.965,899.318a.318.318,0,0,1-.292-.193,21.249,21.249,0,0,0-1.1-2.221.318.318,0,1,1,.552-.314,22.1,22.1,0,0,1,1.132,2.288.318.318,0,0,1-.292.441Zm-3.462-5.6a.317.317,0,0,1-.242-.111c-.161-.19-.328-.378-.5-.565-.388-.424-.8-.838-1.215-1.23a.317.317,0,0,1,.433-.464c.431.4.852.829,1.25,1.266q.261.287.512.581a.317.317,0,0,1-.241.523Zm-31.7-1.627a.317.317,0,0,1-.219-.547q.193-.184.39-.364c.5-.452,1.017-.887,1.551-1.292a.317.317,0,0,1,.384.505c-.518.394-1.026.816-1.507,1.255q-.192.176-.379.355A.318.318,0,0,1,2385.8,892.092Zm26.731-2.691a.318.318,0,0,1-.17-.049,21.47,21.47,0,0,0-2.167-1.2.317.317,0,0,1,.274-.572,22.1,22.1,0,0,1,2.232,1.236.317.317,0,0,1-.17.586Zm-21.347-1.1a.317.317,0,0,1-.142-.6,22.18,22.18,0,0,1,2.348-1,.317.317,0,0,1,.215.6,21.528,21.528,0,0,0-2.281.973A.313.313,0,0,1,2391.189,888.305Zm15.317-1.536a.316.316,0,0,1-.082-.011,21.681,21.681,0,0,0-2.429-.5.317.317,0,0,1-.269-.359.314.314,0,0,1,.36-.268,22.254,22.254,0,0,1,2.5.512.317.317,0,0,1-.081.624Zm-9.047-.464a.317.317,0,0,1-.05-.631,22.359,22.359,0,0,1,2.54-.253.317.317,0,1,1,.027.634,21.722,21.722,0,0,0-2.468.246A.3.3,0,0,1,2397.458,886.305Z" transform="translate(-2382.103 -885.421)"/><path class="p" d="M2772.221,1069.415a.318.318,0,0,1-.313-.269c-.064-.41-.141-.823-.228-1.229a.317.317,0,0,1,.621-.134c.09.418.168.843.235,1.265a.317.317,0,0,1-.264.363A.342.342,0,0,1,2772.221,1069.415Z" transform="translate(-2731.89 -1050.369)"/></g><g transform="translate(4.68 5.344)"><path class="ac" d="M2402.2,958.395a.262.262,0,0,0-.157-.26l-2.922-1.269a13.89,13.89,0,0,0-1.392-4.275l1.612-2.745a.262.262,0,0,0-.026-.3l-2.484-2.9a.263.263,0,0,0-.3-.073l-2.962,1.168a13.874,13.874,0,0,0-4.009-2.037l-.8-3.083a.262.262,0,0,0-.233-.2l-3.81-.3a.262.262,0,0,0-.26.157l-1.269,2.922a13.882,13.882,0,0,0-4.275,1.391l-2.745-1.613a.262.262,0,0,0-.3.027l-2.9,2.484a.261.261,0,0,0-.073.295l1.168,2.962a13.891,13.891,0,0,0-2.037,4.008l-3.083.8a.262.262,0,0,0-.195.233l-.3,3.81a.262.262,0,0,0,.157.26l2.922,1.269a13.882,13.882,0,0,0,1.391,4.276l-1.612,2.745a.261.261,0,0,0,.026.3l2.484,2.9a.262.262,0,0,0,.3.073l2.961-1.168a13.883,13.883,0,0,0,4.009,2.037l.8,3.083a.262.262,0,0,0,.233.2l3.809.3a.261.261,0,0,0,.26-.157l1.269-2.922a13.872,13.872,0,0,0,4.276-1.391l2.745,1.613a.262.262,0,0,0,.3-.027l2.9-2.484a.263.263,0,0,0,.073-.295l-1.168-2.962a13.869,13.869,0,0,0,2.037-4.008l3.083-.8a.262.262,0,0,0,.2-.233Z" transform="translate(-2368.446 -942.12)"/><path class="ad" d="M2510.33,1087.858a3.882,3.882,0,1,1,.66-.057A3.925,3.925,0,0,1,2510.33,1087.858Zm.012-6.786a2.915,2.915,0,1,0,1.681.535h0A2.9,2.9,0,0,0,2510.342,1081.072Z" transform="translate(-2493.461 -1067.112)"/><path class="ad" d="M2453.518,1037.734q-.383,0-.769-.03a9.7,9.7,0,1,1,8.122-15.97l.081.1a9.849,9.849,0,0,1,1,1.446l0,.006.013.023.022.04.012.022.038.069-.837.453a8.791,8.791,0,0,0-1.055-1.535h0a8.743,8.743,0,1,0,1.646,8.469l.9.3a9.7,9.7,0,0,1-9.177,6.61Z" transform="translate(-2436.707 -1011.16)"/></g></g></g><g transform="translate(-779.72 -513.964)"><g transform="translate(1731.893 878.699)"><g transform="translate(0 0)"><path class="ae" d="M1733.316,968.612h0c0-.175,0-.252,0-.27C1733.319,968.374,1733.316,968.612,1733.316,968.612Z" transform="translate(-1732.879 -940.761)"/><path class="ae" d="M1733.316,968.612h0c0-.175,0-.252,0-.27C1733.319,968.374,1733.316,968.612,1733.316,968.612Z" transform="translate(-1732.879 -940.761)"/><path class="ae" d="M2074.073,972.363s0-.237,0-.269c0,.018,0,.095,0,.269Z" transform="translate(-1968.792 -943.359)"/><path class="ae" d="M2074.073,972.363s0-.237,0-.269c0,.018,0,.095,0,.269Z" transform="translate(-1968.792 -943.359)"/><g class="ah" transform="matrix(1, 0, 0, 1, -242.17, -109.73)"><path class="g" d="M1785.156,878.7c-12.3,12.948-31.871,23.5-52.764,27.909-.016,1.387-.1,9.071-.495,44.488-.525,47.245,44.495,70.63,51.484,74.219,6.816-3.069,52.711-25.821,53.235-73.066.394-35.417.479-43.1.495-44.487C1816.322,902.89,1797.169,891.914,1785.156,878.7Z" transform="translate(-1489.72 -768.96)"/></g></g><g transform="translate(5.704 8.538)"><path class="af" d="M1797.809,906.45c-12.037,10.847-28.67,19.325-46.928,23.886l-.445,40.03c-.2,18.316,7,34.935,21.4,49.4a103.932,103.932,0,0,0,24.51,18.087c.219-.109.46-.232.7-.353l.867-130.951C1797.879,906.513,1797.843,906.482,1797.809,906.45Z" transform="translate(-1750.432 -906.45)"/><path class="ag" d="M1902.784,906.756l-1.512,131.3a108.493,108.493,0,0,0,24.854-17.536c14.723-14.14,22.291-30.6,22.494-48.912l.445-40.03C1930.964,926.628,1914.569,917.82,1902.784,906.756Z" transform="translate(-1855.304 -906.662)"/></g></g><g transform="translate(1763.312 923.341)"><path class="g" d="M1834.213,1093.833l-.205,31.012c-.023,3.452,42.334,3.73,42.357.278l.206-31.012Zm23.212,16.622-.058,8.79a2.143,2.143,0,1,1-4.285-.028l.058-8.809a5.211,5.211,0,1,1,4.285.048Z" transform="translate(-1834.008 -1072.283)"/><path class="g" d="M1881.721,1043.385l-4.288-.028.014-2.088a13.182,13.182,0,0,0-26.364-.173l-.014,2.088-4.288-.028.014-2.088a17.47,17.47,0,0,1,34.94.229Z" transform="translate(-1842.852 -1023.792)"/></g></g></g></svg>