<?xml version="1.0" standalone="no"?>
<!DOCTYPE svg PUBLIC "-//W3C//DTD SVG 20010904//EN"
 "http://www.w3.org/TR/2001/REC-SVG-20010904/DTD/svg10.dtd">
<svg version="1.0" xmlns="http://www.w3.org/2000/svg"
 width="256.000000pt" height="185.000000pt" viewBox="0 0 256.000000 185.000000"
 preserveAspectRatio="xMidYMid meet">

<g transform="translate(0.000000,185.000000) scale(0.100000,-0.100000)"
fill="#000000" stroke="none">
<path d="M704 1516 c-96 -52 -177 -143 -218 -246 -10 -25 -23 -55 -28 -66 -30
-65 0 -252 54 -329 53 -78 186 -92 281 -29 l37 24 0 -35 c0 -20 5 -56 11 -81
6 -25 9 -48 5 -51 -4 -4 -20 1 -36 11 -18 10 -39 15 -50 11 -12 -4 -26 0 -34
8 -14 14 -136 37 -195 37 -38 0 -83 -36 -79 -64 2 -15 15 -25 48 -34 25 -8 73
-25 107 -39 34 -14 66 -22 72 -19 5 4 15 -2 20 -13 6 -10 23 -24 38 -30 40
-16 106 -58 118 -74 18 -24 47 -29 66 -11 18 16 19 16 19 -20 0 -27 7 -43 27
-62 15 -14 33 -22 41 -19 20 7 42 -13 42 -38 0 -28 37 -85 60 -92 11 -4 20
-12 20 -20 0 -30 36 -58 83 -62 45 -3 47 -3 67 36 30 59 28 144 -5 187 -14 18
-34 35 -44 39 -11 3 -29 21 -41 40 -13 21 -32 36 -50 40 -17 4 -30 13 -30 20
0 17 -68 65 -92 65 -27 0 -21 23 11 41 15 9 38 37 51 63 l22 47 18 -29 c23
-38 35 -45 85 -52 40 -5 40 -5 37 -46 -7 -90 38 -176 98 -189 l27 -6 -16 -44
c-13 -37 -14 -53 -3 -101 14 -67 32 -91 81 -104 78 -21 153 27 200 128 33 70
76 162 94 203 15 35 18 37 79 43 138 15 203 57 266 170 31 54 58 196 43 225
-5 9 -13 38 -20 64 -18 76 -51 119 -108 143 -78 33 -155 21 -275 -44 -3 -1 -9
16 -13 40 -14 84 -80 138 -171 138 -56 0 -125 -30 -154 -67 -11 -15 -21 -24
-23 -22 -1 2 -11 30 -22 62 -11 34 -29 67 -43 78 -60 47 -160 49 -227 3 -20
-13 -38 -24 -40 -24 -2 0 -6 15 -10 33 -17 88 -53 142 -109 168 -56 25 -139
23 -192 -5z m158 -6 c44 -13 93 -66 107 -117 19 -68 13 -119 -23 -191 -18 -37
-45 -100 -60 -139 -21 -54 -38 -82 -68 -107 -238 -204 -446 41 -292 345 48 95
155 190 237 209 46 11 58 11 99 0z m388 -179 c44 -31 61 -78 58 -153 -4 -72 9
-90 30 -44 18 40 84 108 119 123 69 28 158 4 194 -54 40 -65 27 -115 -104
-398 -70 -150 -127 -259 -143 -272 -36 -33 -79 -30 -116 8 -28 27 -30 34 -25
77 3 27 24 90 47 141 41 93 50 147 14 82 -51 -90 -102 -118 -162 -87 -35 18
-57 72 -48 118 11 53 -13 26 -49 -57 -40 -92 -63 -115 -114 -115 -65 1 -95 44
-93 135 2 132 118 418 194 478 61 49 144 57 198 18z m727 -202 c134 -65 131
-294 -7 -423 -54 -50 -123 -76 -205 -76 l-52 0 -63 -137 c-35 -76 -74 -155
-87 -175 -39 -63 -103 -84 -163 -53 -38 20 -46 53 -27 107 31 85 310 674 331
696 22 25 82 59 126 73 46 14 103 9 147 -12z m-1390 -384 c15 -10 24 -12 28
-4 4 6 14 7 24 3 9 -4 31 -9 49 -13 l32 -6 -27 -38 c-21 -30 -32 -37 -48 -32
-11 4 -32 9 -47 12 -16 3 -28 11 -28 17 0 7 -14 10 -40 8 -48 -5 -77 13 -58
35 27 33 82 41 115 18z m207 -41 c9 -3 16 -12 16 -19 0 -8 8 -11 19 -8 21 5
101 -25 101 -39 0 -4 9 -8 19 -8 32 0 36 -21 10 -42 -13 -10 -34 -28 -46 -39
-18 -16 -26 -18 -43 -9 -16 9 -18 15 -10 30 5 10 10 31 10 47 l0 28 -21 -32
c-12 -18 -26 -33 -32 -33 -16 0 -106 44 -107 53 0 14 45 77 57 77 6 0 18 -3
27 -6z m284 -154 c18 -17 22 -29 17 -49 -5 -21 -4 -24 6 -13 19 18 40 15 66
-10 14 -13 23 -33 23 -52 0 -26 1 -28 13 -13 11 16 15 15 46 -17 37 -39 43
-72 17 -111 -17 -26 -50 -33 -61 -15 -5 8 -11 8 -19 1 -9 -8 -18 -6 -31 9 -16
18 -16 21 5 57 l23 38 -22 -22 c-29 -31 -44 -29 -76 9 -20 24 -25 39 -21 60 4
23 2 28 -14 28 -10 0 -22 5 -25 10 -5 8 -11 7 -21 -1 -11 -9 -17 -9 -29 1 -21
18 -19 30 15 83 33 52 40 52 88 7z"/>
<path d="M681 1294 c-29 -21 -60 -89 -61 -132 0 -39 38 -82 72 -82 40 0 88 38
109 85 11 25 17 50 14 55 -10 15 -25 2 -25 -22 0 -23 -70 -98 -92 -98 -48 0
-66 62 -39 129 17 41 65 68 88 50 27 -23 1 -109 -33 -109 -16 0 -19 36 -4 45
13 8 13 25 0 25 -17 0 -42 -48 -35 -70 8 -26 56 -27 79 -1 10 11 20 38 23 60
9 69 -41 103 -96 65z"/>
<path d="M1788 953 c-72 -76 -60 -196 20 -196 55 0 122 65 122 121 0 33 -17
27 -24 -9 -14 -73 -112 -120 -137 -65 -16 34 -3 89 27 126 42 50 93 32 79 -29
-8 -36 -41 -69 -56 -54 -11 11 -2 43 12 43 5 0 9 7 9 15 0 25 -39 -1 -46 -31
-9 -34 15 -59 49 -50 27 6 57 58 57 98 0 58 -69 76 -112 31z"/>
<path d="M1020 500 c0 -5 5 -10 10 -10 6 0 10 5 10 10 0 6 -4 10 -10 10 -5 0
-10 -4 -10 -10z"/>
<path d="M1112 418 c6 -18 28 -21 28 -4 0 9 -7 16 -16 16 -9 0 -14 -5 -12 -12z"/>
<path d="M1210 321 c0 -12 5 -21 10 -21 6 0 10 6 10 14 0 8 -4 18 -10 21 -5 3
-10 -3 -10 -14z"/>
</g>
</svg>
